<?xml version="1.0" standalone="no"?>
<!DOCTYPE svg PUBLIC "-//W3C//DTD SVG 20010904//EN"
 "http://www.w3.org/TR/2001/REC-SVG-20010904/DTD/svg10.dtd">
<svg version="1.0" xmlns="http://www.w3.org/2000/svg"
 width="275.000000pt" height="183.000000pt" viewBox="0 0 275.000000 183.000000"
 preserveAspectRatio="xMidYMid meet">

<g transform="translate(0.000000,183.000000) scale(0.100000,-0.100000)"
fill="#000000" stroke="none">
<path d="M0 915 l0 -915 1375 0 1375 0 0 461 0 462 -30 -7 c-27 -5 -32 -2 -41
21 -5 15 -9 45 -7 67 3 39 4 41 41 44 l37 3 0 71 0 70 -47 -6 c-72 -9 -216
-23 -558 -56 -170 -17 -363 -35 -428 -41 -108 -11 -119 -10 -137 6 -19 17 -20
17 -30 -9 -13 -35 -13 -63 1 -72 6 -3 9 -14 6 -24 -3 -13 2 -20 20 -25 l25 -6
-28 -24 c-16 -14 -33 -25 -37 -25 -4 0 -17 -9 -29 -20 -12 -11 -32 -20 -45
-20 -13 0 -23 -4 -23 -9 0 -5 -14 -14 -30 -21 -63 -26 -107 -80 -65 -80 22 0
18 -17 -5 -23 -23 -6 -23 -7 -10 102 13 97 6 141 -19 141 -19 0 -92 135 -97
180 -1 14 -6 51 -10 83 l-7 57 127 255 c70 140 131 255 137 255 5 0 9 5 9 10
0 6 -28 10 -65 10 l-64 0 -50 -92 c-74 -139 -94 -169 -111 -166 -10 2 -16 17
-17 48 -2 25 -5 82 -9 128 l-6 82 -574 0 -574 0 0 -915z m1036 440 c19 -15 19
-15 -1 -9 -20 6 -20 5 -1 -10 11 -9 17 -19 13 -22 -7 -7 -46 34 -47 49 0 11
15 8 36 -8z m-712 -60 c-4 -8 -1 -15 6 -15 10 0 10 -3 0 -15 -19 -23 -27 -18
-22 15 2 17 8 30 13 30 5 0 6 -7 3 -15z m859 -105 c3 -11 1 -18 -4 -14 -5 3
-9 12 -9 20 0 20 7 17 13 -6z m-250 -151 c21 0 22 -1 2 -10 -23 -11 -61 -72
-48 -76 5 -2 8 -16 5 -32 -3 -21 3 -36 25 -57 23 -24 36 -29 78 -29 41 0 51 4
61 22 6 13 23 33 38 46 20 18 24 25 14 35 -9 9 -9 12 0 12 7 0 12 10 13 23 1
18 2 17 10 -8 5 -16 11 -41 13 -55 2 -14 12 -46 21 -73 11 -30 15 -63 12 -90
-11 -83 -24 -134 -40 -157 -9 -14 -17 -34 -17 -46 0 -12 -7 -24 -15 -28 -8 -3
-15 -14 -15 -25 0 -22 -35 -86 -47 -86 -25 -2 -53 -19 -53 -32 0 -13 -3 -13
-15 -3 -8 7 -15 20 -15 28 0 12 -3 13 -12 4 -18 -18 -27 -15 -21 8 4 16 0 20
-21 20 -15 0 -26 -6 -26 -13 0 -9 -10 -12 -32 -9 l-31 5 37 18 c24 11 49 16
67 12 30 -6 37 1 41 46 3 22 -2 26 -42 34 -25 5 -40 12 -33 14 7 2 9 11 6 19
-3 9 1 14 14 14 10 0 23 4 28 9 15 13 65 23 65 13 0 -5 -10 -14 -22 -20 -23
-11 -23 -11 3 -11 16 -1 39 11 60 31 l33 32 6 -24 c3 -14 14 -26 23 -28 12 -3
15 1 11 13 -4 9 2 34 11 56 18 39 18 40 -1 66 -11 15 -29 31 -40 37 -10 6 -21
14 -24 17 -7 9 -80 21 -80 13 0 -3 11 -15 25 -26 36 -28 67 -92 52 -107 -6 -6
-18 -11 -27 -11 -9 0 -37 -7 -63 -16 -52 -18 -87 -14 -47 5 14 7 38 30 54 52
29 42 29 63 -1 37 -29 -25 -61 -7 -69 39 -14 80 -60 203 -76 203 -5 0 -7 4 -4
9 7 11 -84 43 -105 38 -8 -2 -11 -2 -6 0 4 3 7 10 7 18 0 17 50 26 104 19 28
-4 46 -2 51 6 4 6 14 9 22 6 8 -3 24 -6 36 -7z m271 -51 c22 -66 34 -194 18
-184 -6 3 -14 28 -17 54 -14 105 -26 152 -41 152 -27 0 -12 25 17 29 3 1 14
-23 23 -51z m-1004 -34 c0 -2 -7 -4 -15 -4 -8 0 -15 4 -15 10 0 5 7 7 15 4 8
-4 15 -8 15 -10z m0 -54 c0 -22 -4 -40 -9 -40 -5 0 -13 18 -19 40 -9 36 -8 40
9 40 15 0 19 -7 19 -40z m2018 23 c-10 -2 -28 -2 -40 0 -13 2 -5 4 17 4 22 1
32 -1 23 -4z m-120 -10 c-10 -2 -26 -2 -35 0 -10 3 -2 5 17 5 19 0 27 -2 18
-5z m-1371 -49 c-3 -3 -12 -4 -19 -1 -8 3 -5 6 6 6 11 1 17 -2 13 -5z m-107
-75 c0 -5 -7 -9 -15 -9 -9 0 -12 6 -9 15 6 15 24 11 24 -6z m66 0 c4 -6 19 -9
37 -5 33 7 57 -7 57 -33 0 -17 -84 -111 -100 -111 -10 0 -70 74 -70 88 0 5 7
12 15 16 8 3 15 12 15 21 0 8 6 15 13 15 8 0 7 4 -3 10 -12 8 -11 10 7 10 12
0 25 -5 29 -11z m-309 -21 c-3 -8 -6 -5 -6 6 -1 11 2 17 5 13 3 -3 4 -12 1
-19z m851 -3 c-3 -3 -9 2 -12 12 -6 14 -5 15 5 6 7 -7 10 -15 7 -18z m562 -6
c0 -5 -4 -9 -10 -9 -5 0 -10 7 -10 16 0 8 5 12 10 9 6 -3 10 -10 10 -16z m760
-79 c0 -5 -7 -10 -16 -10 -8 0 -12 5 -9 10 3 6 10 10 16 10 5 0 9 -4 9 -10z
m-1820 -156 c0 -7 10 -19 22 -25 l22 -12 -22 -8 c-13 -5 -32 -4 -45 2 -24 11
-61 75 -52 89 8 12 75 -29 75 -46z m1027 10 c-3 -3 -12 -4 -19 -1 -8 3 -5 6 6
6 11 1 17 -2 13 -5z m-797 -34 c0 -5 -7 -10 -16 -10 -8 0 -12 5 -9 10 3 6 10
10 16 10 5 0 9 -4 9 -10z m583 -54 c-25 -32 -43 -45 -43 -31 0 9 63 76 67 71
3 -3 -8 -21 -24 -40z m-1303 -141 c0 -34 -4 -45 -15 -45 -9 0 -27 -12 -41 -27
-31 -34 -122 -59 -131 -37 -3 8 2 31 10 51 13 34 19 38 54 41 29 2 45 11 63
32 14 17 33 30 42 30 15 0 18 -9 18 -45z m1336 -126 l38 -44 -47 45 c-50 47
-81 96 -71 112 4 6 14 -8 24 -30 10 -22 35 -59 56 -83z m584 1 c-25 -22 -49
-40 -54 -40 -11 0 -11 0 44 44 60 48 66 45 10 -4z m-1093 -12 c-3 -8 -6 -5 -6
6 -1 11 2 17 5 13 3 -3 4 -12 1 -19z m1023 -38 c0 -9 -51 -40 -66 -40 -5 0 54
46 64 49 1 1 2 -3 2 -9z m247 -11 c-4 -14 1 -22 15 -28 13 -5 17 -10 11 -14
-28 -18 -60 33 -36 56 12 12 15 7 10 -14z m108 -28 c-3 -6 -14 -11 -23 -11
-13 0 -13 2 4 14 21 15 30 14 19 -3z"/>
<path d="M918 543 c6 -2 18 -2 25 0 6 3 1 5 -13 5 -14 0 -19 -2 -12 -5z"/>
<path d="M1580 1803 c0 -26 31 -412 46 -570 5 -58 10 -73 23 -73 9 0 88 7 176
15 128 12 780 68 898 77 l27 2 0 127 0 127 -40 40 c-41 41 -47 56 -30 82 7 12
15 13 40 3 l30 -11 0 46 c0 27 -6 52 -16 63 -9 10 -18 36 -21 58 -10 73 -19
43 -12 -36 4 -42 6 -81 3 -85 -8 -13 -54 -9 -59 5 -7 17 -14 75 -14 120 -1 41
-21 52 -21 11 0 -14 -4 -34 -10 -44 -7 -13 -5 -24 9 -42 26 -32 30 -61 10 -66
-10 -2 -51 32 -105 87 l-89 91 -75 0 -75 0 80 -79 c44 -44 80 -88 80 -98 0
-27 -49 -29 -74 -4 -29 29 -69 27 -81 -3 -5 -13 -17 -26 -27 -29 -12 -3 -8 -5
10 -6 15 0 27 -6 27 -11 0 -7 6 -7 19 0 11 5 31 10 44 10 22 0 28 -8 43 -56
26 -83 22 -86 -132 -102 -128 -14 -128 -14 -146 8 -20 24 -25 114 -8 125 21
13 50 -15 50 -50 0 -28 4 -35 20 -35 17 0 20 7 20 45 0 31 5 47 15 51 28 11 5
22 -35 17 -36 -5 -40 -3 -50 23 l-11 28 -23 -29 -23 -29 -29 19 c-30 19 -33
20 -35 8 -1 -5 -5 -16 -10 -25 -7 -13 -6 -18 3 -18 19 0 60 -92 56 -126 -2
-23 -9 -30 -36 -35 -74 -15 -98 17 -76 100 13 51 12 54 -8 71 -18 14 -22 32
-29 121 -4 57 -8 105 -8 107 -1 1 -73 2 -161 2 l-160 0 0 -27z m962 -245 l59
-61 -41 -14 c-33 -11 -48 -12 -70 -3 -33 14 -55 59 -45 92 8 24 24 48 32 48 3
0 32 -28 65 -62z"/>
<path d="M2496 1561 c-4 -7 -5 -15 -2 -18 9 -9 19 4 14 18 -4 11 -6 11 -12 0z"/>
<path d="M2011 1790 c18 -22 38 -40 44 -40 6 0 21 18 34 40 l22 40 -66 0 -66
0 32 -40z"/>
<path d="M2200 1788 c0 -68 15 -78 34 -22 21 62 21 64 -9 64 -23 0 -25 -4 -25
-42z"/>
<path d="M2493 1818 c2 -7 12 -13 22 -13 10 0 20 6 23 13 2 7 -6 12 -23 12
-17 0 -25 -5 -22 -12z"/>
<path d="M2300 1526 c0 -9 5 -16 10 -16 6 0 10 4 10 9 0 6 -4 13 -10 16 -5 3
-10 -1 -10 -9z"/>
</g>
</svg>
