<?xml version="1.0" standalone="no"?>
<!DOCTYPE svg PUBLIC "-//W3C//DTD SVG 20010904//EN"
 "http://www.w3.org/TR/2001/REC-SVG-20010904/DTD/svg10.dtd">
<svg version="1.0" xmlns="http://www.w3.org/2000/svg"
 width="3617.000000pt" height="1109.000000pt" viewBox="0 0 3617.000000 1109.000000"
 preserveAspectRatio="xMidYMid meet">

<g transform="translate(0.000000,1109.000000) scale(0.100000,-0.100000)"
fill="#000000" stroke="none">
<path d="M1000 5620 l0 -4860 6765 0 6764 0 93 34 c303 110 598 261 846 433
386 268 695 606 890 973 238 445 344 938 329 1520 -9 338 -48 578 -135 845
-295 900 -1068 1486 -2307 1749 -108 23 -1380 252 -1975 356 -267 46 -400 77
-549 127 -380 126 -609 331 -699 623 -48 157 -53 395 -12 555 109 425 520 709
1190 822 98 16 262 18 2404 20 l2299 3 -4 -2172 c-2 -1195 -3 -3009 -1 -4030
l2 -1858 1020 0 1020 0 2 1858 3 1857 943 3 c1057 2 1022 4 1171 -69 89 -44
201 -140 266 -229 19 -26 384 -722 811 -1546 427 -824 795 -1527 819 -1560 95
-133 250 -245 400 -290 56 -17 131 -18 1048 -21 543 -2 987 -1 987 2 0 3 -488
897 -1084 1988 -597 1090 -1086 1988 -1088 1995 -2 9 46 36 133 76 598 275
1112 725 1426 1250 170 285 278 595 334 957 20 125 23 184 23 439 0 318 -10
437 -60 673 -43 207 -102 388 -201 615 -4 9 144 12 722 12 691 0 727 -1 714
-17 -8 -10 -44 -54 -80 -98 -154 -187 -347 -466 -470 -680 -484 -845 -678
-1894 -548 -2965 107 -889 478 -1732 1080 -2455 114 -137 399 -426 539 -546
502 -431 1070 -761 1662 -964 987 -339 2173 -376 3193 -98 72 19 135 38 142
42 18 10 -1085 1351 -1162 1414 -69 55 -173 108 -260 132 -38 10 -134 19 -260
25 -110 5 -240 14 -290 20 -565 68 -1035 260 -1475 601 -118 91 -356 322 -462
449 -364 433 -577 914 -670 1510 -20 129 -22 183 -23 490 0 371 7 457 61 718
85 417 269 828 515 1154 457 606 1086 1010 1794 1153 234 47 361 59 655 59
297 0 424 -12 660 -60 581 -120 1105 -407 1545 -849 466 -468 737 -1043 822
-1745 21 -177 24 -632 4 -785 -36 -287 -107 -596 -163 -712 -32 -66 -33 -71
-33 -198 0 -148 17 -216 83 -324 38 -62 1108 -1381 1120 -1381 11 1 168 208
260 343 465 681 720 1421 783 2277 17 230 6 719 -21 944 -66 557 -202 1022
-440 1511 -462 947 -1256 1743 -2230 2234 -462 234 -883 371 -1450 473 l-185
33 -9450 3 c-7076 2 -9473 0 -9540 -8 -563 -72 -1080 -243 -1501 -496 -801
-481 -1218 -1147 -1305 -2086 -17 -189 -7 -616 20 -786 40 -263 112 -495 226
-727 336 -690 937 -1125 1857 -1345 70 -16 565 -111 1100 -210 1290 -239 1225
-226 1373 -265 640 -167 956 -428 1045 -865 27 -134 28 -338 1 -465 -42 -200
-125 -351 -275 -500 -105 -104 -204 -175 -351 -251 l-105 -54 -2505 0 c-1378
0 -2505 2 -2505 5 0 2 20 53 44 112 194 474 245 1087 131 1568 -90 381 -279
707 -599 1034 -235 240 -513 444 -807 591 -45 23 -78 45 -73 49 5 5 56 40 114
79 161 109 263 193 405 336 313 316 514 658 611 1043 120 475 85 1038 -92
1491 -118 304 -285 556 -528 797 -421 418 -967 706 -1611 849 -149 33 -300 58
-535 87 -71 9 -724 13 -2622 16 l-2528 4 0 -4861z m4829 3177 c208 -34 356
-79 511 -157 380 -189 581 -475 608 -865 37 -518 -172 -883 -629 -1099 -151
-72 -292 -113 -496 -147 -39 -7 -285 -14 -583 -18 -498 -7 -517 -8 -585 -30
-177 -57 -323 -182 -423 -361 -17 -30 -124 -302 -238 -605 -114 -302 -209
-555 -211 -562 -4 -9 244 -13 1104 -16 1202 -4 1157 -2 1390 -61 490 -124 847
-453 952 -876 30 -123 42 -286 31 -426 -25 -302 -118 -513 -314 -710 -233
-234 -525 -366 -929 -419 -102 -13 -315 -15 -1548 -15 l-1429 0 0 3188 c0
1754 3 3192 7 3196 4 4 608 5 1343 3 1191 -3 1346 -5 1439 -20z m16041 -70
c353 -57 614 -176 822 -375 253 -242 371 -532 371 -912 0 -310 -72 -540 -238
-762 -197 -262 -505 -441 -875 -508 -191 -34 -413 -40 -1727 -40 l-1263 0 0
1310 0 1311 1403 -4 c1259 -3 1413 -5 1507 -20z"/>
<path d="M31520 4445 c-68 -15 -1316 -418 -1327 -429 -3 -3 12 -27 34 -53 21
-27 603 -741 1293 -1588 689 -847 1276 -1564 1304 -1593 115 -120 290 -208
435 -218 65 -5 95 -1 211 29 229 60 1332 407 1352 426 8 7 -2538 3139 -2625
3230 -73 75 -185 146 -281 177 -100 33 -290 42 -396 19z"/>
</g>
</svg>
